<svg width="23" height="27" viewBox="0 0 23 27" fill="none" xmlns="http://www.w3.org/2000/svg">
<path d="M21.3571 0H1.64286C1.20714 0 0.789277 0.2774 0.481182 0.771176C0.173086 1.26495 0 1.93465 0 2.63296V23.6966C0 24.3949 0.173086 25.0646 0.481182 25.5584C0.789277 26.0522 1.20714 26.3296 1.64286 26.3296H21.3571C21.7929 26.3296 22.2107 26.0522 22.5188 25.5584C22.8269 25.0646 23 24.3949 23 23.6966V2.63296C23 1.93465 22.8269 1.26495 22.5188 0.771176C22.2107 0.2774 21.7929 0 21.3571 0ZM19.55 2.63296L11.5 11.5587L3.45 2.63296H19.55ZM1.64286 23.6966V3.83096L11.0318 14.2443C11.1693 14.3972 11.3326 14.4791 11.5 14.4791C11.6674 14.4791 11.8307 14.3972 11.9682 14.2443L21.3571 3.83096V23.6966H1.64286Z" fill="white"/>
</svg>
