<svg width="58" height="58" viewBox="0 0 58 58" fill="none" xmlns="http://www.w3.org/2000/svg">
<rect y="29.2377" width="41.3484" height="39.8357" transform="rotate(-45 0 29.2377)" fill="#6F6F6F"/>
<path d="M28.6834 32.4058H24.4974V31.8738C24.6841 31.7805 24.8661 31.7012 25.0434 31.6358C25.2208 31.5705 25.4121 31.5145 25.6174 31.4678V25.6158L25.6874 23.9778H25.5754L25.1134 25.4758L22.4114 32.4058H21.7674L19.0794 25.5318L18.5754 23.8938H18.4494L18.4634 25.6718V31.4118C18.6408 31.4492 18.8368 31.5098 19.0514 31.5938C19.2661 31.6778 19.4668 31.7712 19.6534 31.8738V32.4058H16.2374V31.8738C16.3868 31.7992 16.5688 31.7105 16.7834 31.6078C17.0074 31.5052 17.2174 31.4352 17.4134 31.3978V23.5438C17.2268 23.5065 17.0261 23.4552 16.8114 23.3898C16.6061 23.3245 16.4241 23.2405 16.2654 23.1378V22.6058H20.0594L22.2014 28.3038L22.6074 29.6478H22.6214L23.0414 28.2758L25.2254 22.6058H28.6974V23.1378C28.5388 23.2312 28.3661 23.3152 28.1794 23.3898C28.0021 23.4552 27.8201 23.5065 27.6334 23.5438V31.4818C27.8294 31.5192 28.0161 31.5752 28.1934 31.6498C28.3801 31.7245 28.5434 31.7992 28.6834 31.8738V32.4058ZM33.4251 22.3818L34.2651 22.7318L29.1551 34.2678L28.3291 33.9038L33.4251 22.3818ZM44.6216 33.9738C44.4536 34.1512 44.2716 34.3192 44.0756 34.4778C43.8889 34.6458 43.6882 34.7952 43.4736 34.9258C43.2682 35.0565 43.0489 35.1592 42.8156 35.2338C42.5822 35.3085 42.3396 35.3458 42.0876 35.3458C41.6582 35.3458 41.2242 35.2665 40.7856 35.1078C40.3562 34.9585 39.9036 34.7812 39.4276 34.5758C38.9609 34.3798 38.4662 34.1885 37.9436 34.0018C37.4302 33.8152 36.8702 33.6845 36.2636 33.6098L36.6136 32.9938C37.0616 32.9098 37.5002 32.8865 37.9296 32.9238C38.3682 32.9705 38.7976 33.0405 39.2176 33.1338C39.6469 33.2365 40.0716 33.3485 40.4916 33.4698C40.9209 33.5912 41.3502 33.6892 41.7796 33.7638C42.2089 33.8385 42.6476 33.8712 43.0956 33.8618C43.5436 33.8618 44.0056 33.7825 44.4816 33.6238L44.6216 33.9738ZM34.3316 27.5058C34.3316 26.7778 34.4342 26.1058 34.6396 25.4898C34.8449 24.8645 35.1482 24.3278 35.5496 23.8798C35.9509 23.4225 36.4456 23.0678 37.0336 22.8158C37.6216 22.5638 38.2982 22.4378 39.0636 22.4378C39.8289 22.4378 40.5056 22.5638 41.0936 22.8158C41.6816 23.0678 42.1716 23.4225 42.5636 23.8798C42.9649 24.3278 43.2682 24.8645 43.4736 25.4898C43.6789 26.1058 43.7816 26.7778 43.7816 27.5058C43.7816 28.2338 43.6789 28.9105 43.4736 29.5358C43.2682 30.1518 42.9649 30.6885 42.5636 31.1458C42.1716 31.5938 41.6816 31.9438 41.0936 32.1958C40.5056 32.4478 39.8289 32.5738 39.0636 32.5738C38.2982 32.5738 37.6216 32.4478 37.0336 32.1958C36.4456 31.9438 35.9509 31.5938 35.5496 31.1458C35.1482 30.6885 34.8449 30.1518 34.6396 29.5358C34.4342 28.9105 34.3316 28.2338 34.3316 27.5058ZM36.7116 27.5058C36.7116 28.1032 36.7582 28.6585 36.8516 29.1718C36.9449 29.6758 37.0896 30.1145 37.2856 30.4878C37.4909 30.8518 37.7476 31.1412 38.0556 31.3558C38.3729 31.5612 38.7509 31.6638 39.1896 31.6638C39.5909 31.6638 39.9316 31.5612 40.2116 31.3558C40.4916 31.1412 40.7202 30.8518 40.8976 30.4878C41.0749 30.1145 41.2009 29.6758 41.2756 29.1718C41.3596 28.6585 41.4016 28.1032 41.4016 27.5058C41.4016 26.9085 41.3549 26.3578 41.2616 25.8538C41.1776 25.3405 41.0376 24.9018 40.8416 24.5378C40.6549 24.1645 40.4029 23.8752 40.0856 23.6698C39.7776 23.4552 39.3996 23.3478 38.9516 23.3478C38.5222 23.3478 38.1629 23.4552 37.8736 23.6698C37.5842 23.8752 37.3509 24.1645 37.1736 24.5378C37.0056 24.9018 36.8842 25.3405 36.8096 25.8538C36.7442 26.3578 36.7116 26.9085 36.7116 27.5058Z" fill="black"/>
</svg>
