<svg width="23" height="23" viewBox="0 0 23 23" fill="none" xmlns="http://www.w3.org/2000/svg">
<path d="M21.735 15.3551C20.1633 15.3551 18.6428 15.107 17.2244 14.6605C17.0022 14.5874 16.7633 14.5766 16.5351 14.6292C16.3068 14.6819 16.0985 14.7959 15.9339 14.9582L13.9278 17.4016C10.3117 15.7272 6.92556 12.5644 5.12389 8.93027L7.61556 6.87135C7.96056 6.52406 8.06278 6.04034 7.92222 5.60623C7.44944 4.22948 7.20667 2.7535 7.20667 1.22791C7.20667 0.558142 6.63167 0 5.94167 0H1.52056C0.830556 0 0 0.297676 0 1.22791C0 12.7504 9.87722 22.3257 21.735 22.3257C22.6422 22.3257 23 21.5443 23 20.8621V16.583C23 15.9133 22.425 15.3551 21.735 15.3551Z" fill="white"/>
</svg>
