<svg width="40" height="40" viewBox="0 0 40 40" fill="none" xmlns="http://www.w3.org/2000/svg">
<path d="M37.3019 20.0048C38.1437 18.327 38.8063 16.6403 39.2663 14.9783C40.7084 9.77074 40.0101 5.41007 37.2995 2.7001C34.5892 -0.00986549 30.2279 -0.708415 25.0197 0.733544C23.3575 1.19345 21.6706 1.85629 19.9925 2.69766C17.9049 1.64999 15.8141 0.883386 13.7997 0.441796C9.12076 -0.583597 5.17707 0.218407 2.69536 2.7001C1.10244 4.29282 0.178551 6.53068 0.0241121 9.17198C-0.114761 11.5481 0.366869 14.2748 1.41651 17.0837C0.554577 17.7651 0 18.8186 0 19.9999C0 21.1813 0.554577 22.2348 1.41651 22.9162C0.366869 25.7251 -0.114761 28.4521 0.0241121 30.8279C0.178856 33.4692 1.10244 35.7071 2.69536 37.2998C4.47416 39.0787 6.9699 39.9957 9.98452 39.9957C10.5898 39.9957 11.2161 39.9588 11.8619 39.8843C14.4468 39.5862 17.2087 38.7057 19.9965 37.3041C21.6734 38.1448 23.3591 38.8068 25.0197 39.2664C26.7921 39.7571 28.4665 40 30.0112 40C33.0051 40 35.5115 39.0875 37.2995 37.2998C39.7815 34.8184 40.5836 30.8752 39.5581 26.1966C39.1164 24.1827 38.3497 22.0922 37.3019 20.0048ZM25.3329 1.86483C30.1159 0.540673 34.0709 1.13211 36.4693 3.53018C38.8677 5.92826 39.4592 9.88274 38.1349 14.6652C37.764 16.0049 37.2546 17.3629 36.621 18.7197C35.4856 16.6839 34.0892 14.6667 32.4713 12.7425C32.9669 12.1108 33.2636 11.3158 33.2636 10.4525C33.2636 9.61784 32.9935 8.82927 32.482 8.17192L31.5553 8.89244C31.9051 9.34196 32.0898 9.88152 32.0898 10.4525C32.0898 11.8551 30.9486 12.9958 29.5461 12.9958C28.1436 12.9958 27.0024 11.8551 27.0024 10.4525C27.0024 9.04991 28.1436 7.90916 29.5461 7.90916C30.0039 7.90916 30.4529 8.03184 30.8439 8.26439L31.4439 7.25547C30.8713 6.9152 30.2151 6.73515 29.5461 6.73515C28.6826 6.73515 27.8875 7.03208 27.2561 7.52769C25.3314 5.90995 23.3139 4.51377 21.2778 3.3782C22.6348 2.74496 23.993 2.23562 25.3329 1.86483ZM3.52555 3.53018C6.69948 0.356652 12.5193 0.47506 18.7122 3.37485C15.689 5.06064 12.7238 7.31803 10.0187 10.0225C8.01283 12.0281 6.24746 14.1824 4.76442 16.4312C4.4302 16.3342 4.0786 16.2826 3.71783 16.2826C3.27374 16.2826 2.84797 16.3613 2.45271 16.5045C0.418756 10.9615 0.799665 6.25541 3.52555 3.53018ZM10.015 38.8177C7.35936 38.8177 5.10168 38.0456 3.52524 36.4697C0.799665 33.7445 0.418451 29.0387 2.45271 23.4954C2.84797 23.6389 3.27374 23.7173 3.71783 23.7173C4.08073 23.7173 4.43112 23.6639 4.76319 23.5665C6.24624 25.8163 8.01221 27.9712 10.0187 29.9774C12.7229 32.681 15.6872 34.9377 18.7094 36.6235C15.6051 38.0762 12.6185 38.8181 10.015 38.8177ZM19.9941 35.9848C16.8232 34.3194 13.692 31.9897 10.8489 29.1473C8.93854 27.2369 7.25345 25.1898 5.83267 23.0548C6.8002 22.3831 7.43536 21.2646 7.43536 20.0003C7.43536 19.8901 7.43078 19.7787 7.42101 19.6691L6.25143 19.7726C6.25814 19.8477 6.2615 19.924 6.2615 19.9999C6.2615 21.4025 5.1203 22.5433 3.71783 22.5433C2.31537 22.5433 1.17416 21.4025 1.17416 19.9999C1.17416 18.5974 2.31537 17.4566 3.71783 17.4566C4.68659 17.4566 5.55859 17.9949 5.99321 18.8613L7.04254 18.3352C6.75564 17.763 6.3375 17.2891 5.83511 16.9409C7.25559 14.8077 8.93976 12.7615 10.8489 10.8526C13.6926 8.00926 16.825 5.67893 19.9968 4.01358C22.1556 5.14975 24.3397 6.6146 26.4558 8.38859C26.0596 8.97941 25.8283 9.68925 25.8283 10.4525C25.8283 12.5021 27.4963 14.1696 29.5461 14.1696C30.3094 14.1696 31.0194 13.9382 31.6103 13.5421C33.3845 15.6579 34.8492 17.842 35.9855 20.0003C34.32 23.1716 31.9893 26.3037 29.146 29.1473C28.8331 29.4598 28.5117 29.7705 28.187 30.0747C27.539 29.5266 26.7024 29.1952 25.7892 29.1952C24.9544 29.1952 24.1658 29.4656 23.5083 29.9768L24.2292 30.9033C24.6785 30.5539 25.2181 30.3692 25.7892 30.3689C27.1917 30.3689 28.3329 31.51 28.3329 32.9123C28.3329 34.3149 27.1917 35.4556 25.7892 35.4556C24.3867 35.4556 23.2455 34.3149 23.2455 32.9123C23.2455 32.4545 23.3682 32.0059 23.6008 31.615L22.5918 31.0147C22.2514 31.5872 22.0714 32.2433 22.0714 32.9123C22.0714 33.5013 22.2096 34.0579 22.4544 34.5532C21.6318 35.0781 20.8102 35.5554 19.9941 35.9848ZM36.4693 36.4697C34.0709 38.8681 30.1159 39.4592 25.3329 38.1354C23.9939 37.7646 22.6369 37.2559 21.2809 36.6229C21.8992 36.2775 22.5179 35.9067 23.1347 35.5118C23.8102 36.2009 24.7502 36.6296 25.7892 36.6296C27.839 36.6296 29.507 34.9621 29.507 32.9126C29.507 32.1988 29.3044 31.532 28.9543 30.9649C29.3004 30.6411 29.6428 30.3103 29.9758 29.9774C32.681 27.2723 34.9383 24.3075 36.6246 21.2847C39.5248 27.4771 39.6432 33.2962 36.4693 36.4697Z" fill="#F1F1F1"/>
<path d="M29.6242 26.0651H28.4113V23.1077C28.4113 21.7997 27.532 20.6382 26.273 20.283L25.8341 20.1594L25.5154 21.2892L25.9543 21.4131C26.7094 21.6261 27.2371 22.3228 27.2371 23.1077V26.0651H25.1238V24.4608H23.95V26.0651H18.6667V27.2388H29.6242V26.0651Z" fill="white"/>
<path d="M21.9389 20.2803L24.3855 20.9706L24.7045 19.8406L22.3064 19.1643V17.6054C23.392 16.8651 24.1066 15.619 24.1066 14.2088V12.487C24.1066 10.2217 22.2634 8.37842 19.9974 8.37842C17.7318 8.37842 15.8883 10.2217 15.8883 12.487V14.2088C15.8883 15.619 16.6028 16.8651 17.6885 17.6054V19.1643L13.7219 20.2828C12.4629 20.638 11.5836 21.7995 11.5836 23.1075V26.0649H10.3706V27.2387H17.4928V26.0649H16.0449V24.4606H14.871V26.0649H12.7577V23.1075C12.7577 22.3226 13.2854 21.6258 14.0405 21.4128L18.056 20.2806C18.5504 20.8214 19.2487 21.1348 19.9974 21.1348C20.7461 21.1348 21.4448 20.8211 21.9389 20.2803ZM19.9974 9.55243C21.6157 9.55243 22.9324 10.869 22.9324 12.4873V13.141L21.6984 11.5089H17.2307C17.6345 10.3703 18.7219 9.55243 19.9974 9.55243ZM17.0625 14.2088V12.6829H21.1142L22.835 14.9583C22.5026 16.2147 21.3566 17.1434 19.9974 17.1434C18.3792 17.1434 17.0625 15.8269 17.0625 14.2088ZM18.8626 19.4191V18.1566C19.2231 18.2607 19.6037 18.3174 19.9974 18.3174C20.3912 18.3174 20.7715 18.2607 21.1322 18.1566V19.4191C20.8563 19.7606 20.4431 19.9608 19.9974 19.9608C19.5518 19.9608 19.1383 19.7606 18.8626 19.4191Z" fill="#F8F8F8"/>
<path d="M23.0981 23.0467L21.4442 22.5803L21.7632 21.4503L23.4168 21.9167L23.0981 23.0467Z" fill="white"/>
<path d="M25.6753 22.5518L25.3563 23.6818L24.2262 23.3631L24.5452 22.2332L25.6753 22.5518Z" fill="white"/>
<path d="M28.9592 9.86572H30.1332V11.0399H28.9592V9.86572Z" fill="white"/>
<path d="M25.2022 32.3258H26.3763V33.4996H25.2022V32.3258Z" fill="white"/>
<path d="M3.13058 19.4132H4.30493V20.587H3.13058V19.4132Z" fill="white"/>
</svg>
