<svg width="0" height="0" class="hidden">
<symbol fill="none" xmlns="http://www.w3.org/2000/svg" viewBox="0 0 58 58" id="logo">
    <path fill="#6F6F6F" d="M0 29.238L29.238 0l28.168 28.17-29.237 29.236z"></path>
    <path d="M28.683 32.406h-4.186v-.532a4.643 4.643 0 011.12-.406v-5.852l.07-1.638h-.112l-.462 1.498-2.702 6.93h-.644l-2.688-6.874-.504-1.638h-.126l.014 1.778v5.74c.178.037.374.098.588.182.215.084.416.177.602.28v.532h-3.416v-.532c.15-.075.332-.163.546-.266.224-.103.434-.173.63-.21v-7.854a6.346 6.346 0 01-.602-.154 2.261 2.261 0 01-.546-.252v-.532h3.794l2.142 5.698.406 1.344h.014l.42-1.372 2.184-5.67h3.472v.532a3.792 3.792 0 01-.518.252 3.63 3.63 0 01-.546.154v7.938c.196.037.383.093.56.168.187.075.35.15.49.224v.532zm4.742-10.024l.84.35-5.11 11.536-.826-.364 5.096-11.522zm11.197 11.592c-.168.177-.35.345-.546.504a4.032 4.032 0 01-.602.448 2.82 2.82 0 01-.658.308 2.373 2.373 0 01-.728.112c-.43 0-.864-.08-1.302-.238-.43-.15-.882-.327-1.358-.532a29.252 29.252 0 00-1.484-.574 7.64 7.64 0 00-1.68-.392l.35-.616a4.84 4.84 0 011.316-.07c.438.047.868.117 1.288.21.429.102.854.215 1.274.336.429.121.858.22 1.288.294a6.83 6.83 0 001.316.098c.448 0 .91-.08 1.386-.238l.14.35zm-10.29-6.468c0-.728.102-1.4.308-2.016a4.466 4.466 0 01.91-1.61 4.083 4.083 0 011.484-1.064c.588-.252 1.264-.378 2.03-.378.765 0 1.442.126 2.03.378a3.955 3.955 0 011.47 1.064c.4.448.704.985.91 1.61.205.616.308 1.288.308 2.016s-.103 1.404-.308 2.03a4.63 4.63 0 01-.91 1.61 4.028 4.028 0 01-1.47 1.05c-.588.252-1.265.378-2.03.378-.766 0-1.442-.126-2.03-.378a4.162 4.162 0 01-1.484-1.05 4.628 4.628 0 01-.91-1.61 6.469 6.469 0 01-.308-2.03zm2.38 0c0 .597.046 1.152.14 1.666.093.504.238.942.434 1.316.205.364.462.653.77.868.317.205.695.308 1.134.308.4 0 .742-.103 1.022-.308.28-.215.508-.504.686-.868.177-.373.303-.812.378-1.316.084-.514.126-1.069.126-1.666 0-.598-.047-1.148-.14-1.652-.084-.514-.224-.952-.42-1.316a2.153 2.153 0 00-.756-.868c-.308-.215-.686-.322-1.134-.322-.43 0-.79.107-1.078.322-.29.205-.523.494-.7.868-.168.364-.29.802-.364 1.316a12.884 12.884 0 00-.098 1.652z" fill="#000"></path>
  </symbol>

  <symbol fill="none" xmlns="http://www.w3.org/2000/svg" viewBox="0 0 40 40" id="portrait">
    <path d="M37.302 20.005c.842-1.678 1.504-3.365 1.964-5.027C40.708 9.771 40.01 5.41 37.3 2.7 34.59-.01 30.228-.708 25.02.734a27.766 27.766 0 00-5.027 1.964C17.904 1.65 15.813.883 13.8.442 9.12-.584 5.177.218 2.695 2.7 1.102 4.293.18 6.53.025 9.172c-.14 2.376.342 5.103 1.392 7.912a3.711 3.711 0 000 5.832c-1.05 2.81-1.532 5.536-1.393 7.912.155 2.641 1.078 4.88 2.671 6.472 1.78 1.779 4.275 2.696 7.29 2.696.605 0 1.231-.037 1.877-.112 2.585-.298 5.347-1.178 8.135-2.58 1.676.84 3.362 1.503 5.023 1.962 1.772.491 3.447.734 4.991.734 2.994 0 5.5-.913 7.289-2.7 2.482-2.482 3.284-6.425 2.258-11.103-.442-2.014-1.208-4.105-2.256-6.192zm-11.97-18.14C30.117.54 34.072 1.132 36.47 3.53c2.399 2.398 2.99 6.353 1.666 11.135a26.01 26.01 0 01-1.514 4.055 38.44 38.44 0 00-4.15-5.977 3.698 3.698 0 00.793-2.29 3.68 3.68 0 00-.782-2.281l-.927.72c.35.45.535.99.535 1.56a2.546 2.546 0 01-2.544 2.544 2.546 2.546 0 01-2.544-2.543 2.546 2.546 0 013.842-2.189l.6-1.009a3.716 3.716 0 00-4.188.273 38.48 38.48 0 00-5.978-4.15 26.066 26.066 0 014.055-1.513zM3.527 3.53C6.699.357 12.519.475 18.712 3.375c-3.023 1.686-5.988 3.943-8.693 6.648a41.087 41.087 0 00-5.255 6.408 3.752 3.752 0 00-2.311.073C.419 10.962.8 6.255 3.526 3.53zm6.489 35.288c-2.656 0-4.913-.772-6.49-2.348C.8 33.745.418 29.039 2.453 23.495a3.699 3.699 0 002.31.072 41.058 41.058 0 005.256 6.41c2.704 2.704 5.668 4.96 8.69 6.646-3.104 1.453-6.09 2.195-8.694 2.195zm9.98-2.833c-3.172-1.666-6.303-3.995-9.146-6.838a39.96 39.96 0 01-5.016-6.092 3.715 3.715 0 001.588-3.386l-1.17.104a2.546 2.546 0 01-2.534 2.77A2.546 2.546 0 011.175 20a2.546 2.546 0 012.544-2.543c.969 0 1.84.538 2.275 1.404l1.05-.526a3.721 3.721 0 00-1.208-1.394 39.981 39.981 0 015.014-6.088c2.844-2.844 5.976-5.174 9.148-6.84 2.159 1.137 4.343 2.602 6.459 4.376-.396.59-.628 1.3-.628 2.064a3.722 3.722 0 003.718 3.717c.763 0 1.473-.232 2.064-.628 1.775 2.116 3.24 4.3 4.376 6.458-1.666 3.172-3.997 6.304-6.84 9.147-.313.313-.634.623-.959.928a3.701 3.701 0 00-2.398-.88c-.835 0-1.623.27-2.28.782l.72.926a2.547 2.547 0 014.104 2.009 2.546 2.546 0 01-2.544 2.544 2.546 2.546 0 01-2.188-3.841l-1.01-.6a3.714 3.714 0 00-.137 3.538 34.078 34.078 0 01-2.46 1.432zm16.474.485c-2.398 2.398-6.353 2.99-11.136 1.665a26.05 26.05 0 01-4.052-1.512 36.024 36.024 0 001.854-1.111 3.707 3.707 0 002.654 1.118 3.722 3.722 0 003.718-3.717c0-.714-.203-1.381-.553-1.948a43.44 43.44 0 001.022-.988c2.705-2.705 4.962-5.67 6.649-8.692 2.9 6.192 3.018 12.011-.156 15.185z" fill="#F1F1F1"></path>
    <path d="M29.624 26.065h-1.213v-2.957c0-1.308-.879-2.47-2.138-2.825l-.439-.124-.319 1.13.44.124c.754.213 1.282.91 1.282 1.695v2.957h-2.113v-1.604H23.95v1.604h-5.283v1.174h10.957v-1.174z" fill="#fff"></path>
    <path d="M21.939 20.28l2.447.69.319-1.13-2.399-.676v-1.559a4.108 4.108 0 001.8-3.396v-1.722a4.114 4.114 0 00-4.109-4.109 4.114 4.114 0 00-4.109 4.109v1.722c0 1.41.715 2.656 1.8 3.396v1.56l-3.966 1.118a2.946 2.946 0 00-2.138 2.825v2.957H10.37v1.174h7.122v-1.174h-1.448V24.46H14.87v1.604h-2.113v-2.957c0-.785.527-1.482 1.283-1.695l4.015-1.132c.494.54 1.193.854 1.941.854a2.62 2.62 0 001.942-.855zM19.997 9.552a2.938 2.938 0 012.935 2.935v.654l-1.234-1.632h-4.467a2.94 2.94 0 012.766-1.957zm-2.934 4.657v-1.526h4.051l1.721 2.275a2.94 2.94 0 01-2.838 2.185 2.938 2.938 0 01-2.934-2.934zm1.8 5.21v-1.262a4.084 4.084 0 002.27 0v1.262c-.277.342-.69.542-1.136.542-.445 0-.859-.2-1.134-.542z" fill="#F8F8F8"></path>
    <path d="M23.098 23.047l-1.654-.467.32-1.13 1.653.467-.319 1.13zm2.577-.495l-.319 1.13-1.13-.319.32-1.13 1.13.319zM28.96 9.866h1.173v1.174H28.96V9.866zm-3.758 22.46h1.174V33.5h-1.174v-1.174zM3.13 19.413h1.175v1.174H3.13v-1.174z" fill="#fff"></path>
  </symbol>
  
  <symbol fill="none" xmlns="http://www.w3.org/2000/svg" viewBox="0 0 23 27" id="email">
    <path d="M21.357 0H1.643C1.207 0 .789.277.48.771.173 1.265 0 1.935 0 2.633v21.064c0 .698.173 1.368.481 1.861.308.494.726.772 1.162.772h19.714c.436 0 .854-.278 1.162-.772.308-.493.481-1.163.481-1.861V2.633c0-.698-.173-1.368-.481-1.862S21.793 0 21.357 0zM19.55 2.633l-8.05 8.926-8.05-8.926h16.1zM1.643 23.697V3.83l9.389 10.413c.137.153.3.235.468.235.167 0 .33-.082.468-.235l9.39-10.413v19.866H1.642z" fill="#fff"></path>
  </symbol>

  <symbol fill="none" xmlns="http://www.w3.org/2000/svg" viewBox="0 0 30 30" id="location">
    <path d="M15 16.875a4.687 4.687 0 110-9.374 4.687 4.687 0 010 9.374zm0-7.5a2.812 2.812 0 100 5.624 2.812 2.812 0 000-5.624z" fill="#fff"></path>
    <path d="M15 28.125l-7.909-9.327a32.64 32.64 0 01-.326-.423 10.208 10.208 0 01-2.077-6.188 10.313 10.313 0 0120.625 0 10.203 10.203 0 01-2.077 6.185l-.001.003s-.281.37-.323.42L15 28.124zm-6.739-10.88c.002 0 .22.29.27.35L15 25.227l6.478-7.64c.041-.052.26-.343.262-.343a8.345 8.345 0 001.698-5.055 8.437 8.437 0 10-16.875 0 8.348 8.348 0 001.7 5.057H8.26z" fill="#fff"></path>
  </symbol>

  <symbol fill="none" xmlns="http://www.w3.org/2000/svg" viewBox="0 0 23 23" id="phone">
    <path d="M21.735 15.355c-1.572 0-3.092-.248-4.51-.694a1.285 1.285 0 00-.69-.032 1.26 1.26 0 00-.601.33l-2.006 2.443c-3.616-1.675-7.002-4.838-8.804-8.472l2.492-2.059a1.24 1.24 0 00.306-1.265 13.463 13.463 0 01-.715-4.378C7.207.558 6.632 0 5.942 0H1.52C.83 0 0 .298 0 1.228 0 12.75 9.877 22.326 21.735 22.326c.907 0 1.265-.782 1.265-1.464v-4.279c0-.67-.575-1.228-1.265-1.228z" fill="#fff"></path>
  </symbol>

  <symbol fill="none" xmlns="http://www.w3.org/2000/svg" viewBox="0 0 30 30" id="time">
    <path d="M15 28.125a13.125 13.125 0 110-26.25 13.125 13.125 0 010 26.25zM15 3.75a11.25 11.25 0 100 22.5 11.25 11.25 0 000-22.5z" fill="#fff"></path>
    <path d="M19.303 20.625l-5.24-5.24V6.562h1.874v8.043l4.688 4.697-1.322 1.322z" fill="#fff"></path>
  </symbol>
  
</svg>